<mxfile host="app.diagrams.net" modified="2022-03-11T07:14:56.795Z" agent="5.0 (Windows NT 6.3; Win64; x64) AppleWebKit/537.36 (KHTML, like Gecko) Chrome/99.0.4844.51 Safari/537.36" etag="NrOzQFOq_5IU9AIveLoC" version="17.1.1" type="github">
  <diagram id="3jRMcSLiw0W7gwjwwNcd" name="Page-2">
    <mxGraphModel dx="1718" dy="450" grid="1" gridSize="10" guides="1" tooltips="1" connect="1" arrows="1" fold="1" page="1" pageScale="1" pageWidth="850" pageHeight="1100" math="0" shadow="0">
      <root>
        <mxCell id="GGf_Twrp3IPaFsppmbBV-0" />
        <mxCell id="GGf_Twrp3IPaFsppmbBV-1" parent="GGf_Twrp3IPaFsppmbBV-0" />
        <mxCell id="GGf_Twrp3IPaFsppmbBV-2" value="Alat" style="rounded=0;whiteSpace=wrap;html=1;fontSize=15;" parent="GGf_Twrp3IPaFsppmbBV-1" vertex="1">
          <mxGeometry x="580" y="480" width="120" height="60" as="geometry" />
        </mxCell>
        <mxCell id="GGf_Twrp3IPaFsppmbBV-3" value="Penanaman" style="rounded=0;whiteSpace=wrap;html=1;fontSize=15;" parent="GGf_Twrp3IPaFsppmbBV-1" vertex="1">
          <mxGeometry x="130" y="240" width="120" height="60" as="geometry" />
        </mxCell>
        <mxCell id="GGf_Twrp3IPaFsppmbBV-4" value="Panen" style="rounded=0;whiteSpace=wrap;html=1;fontSize=15;" parent="GGf_Twrp3IPaFsppmbBV-1" vertex="1">
          <mxGeometry x="600" y="270" width="120" height="60" as="geometry" />
        </mxCell>
        <mxCell id="GGf_Twrp3IPaFsppmbBV-5" value="tgl tanam" style="ellipse;whiteSpace=wrap;html=1;fontSize=15;" parent="GGf_Twrp3IPaFsppmbBV-1" vertex="1">
          <mxGeometry x="260" y="60" width="80" height="60" as="geometry" />
        </mxCell>
        <mxCell id="GGf_Twrp3IPaFsppmbBV-6" value="perkiraan panen" style="ellipse;whiteSpace=wrap;html=1;fontSize=15;" parent="GGf_Twrp3IPaFsppmbBV-1" vertex="1">
          <mxGeometry x="280" y="155" width="100" height="60" as="geometry" />
        </mxCell>
        <mxCell id="GGf_Twrp3IPaFsppmbBV-7" value="Harga benih" style="ellipse;whiteSpace=wrap;html=1;fontSize=15;" parent="GGf_Twrp3IPaFsppmbBV-1" vertex="1">
          <mxGeometry x="80" y="30" width="80" height="60" as="geometry" />
        </mxCell>
        <mxCell id="GGf_Twrp3IPaFsppmbBV-8" value="Jumlah benih" style="ellipse;whiteSpace=wrap;html=1;fontSize=15;" parent="GGf_Twrp3IPaFsppmbBV-1" vertex="1">
          <mxGeometry x="10" y="70" width="80" height="60" as="geometry" />
        </mxCell>
        <mxCell id="GGf_Twrp3IPaFsppmbBV-9" value="Nama benih" style="ellipse;whiteSpace=wrap;html=1;fontSize=15;" parent="GGf_Twrp3IPaFsppmbBV-1" vertex="1">
          <mxGeometry x="-10" y="140" width="90" height="50" as="geometry" />
        </mxCell>
        <mxCell id="GGf_Twrp3IPaFsppmbBV-11" value="" style="endArrow=none;html=1;rounded=0;fontSize=15;entryX=1;entryY=1;entryDx=0;entryDy=0;" parent="GGf_Twrp3IPaFsppmbBV-1" target="GGf_Twrp3IPaFsppmbBV-9" edge="1">
          <mxGeometry width="50" height="50" relative="1" as="geometry">
            <mxPoint x="165" y="240" as="sourcePoint" />
            <mxPoint x="215" y="190" as="targetPoint" />
          </mxGeometry>
        </mxCell>
        <mxCell id="GGf_Twrp3IPaFsppmbBV-12" value="" style="endArrow=none;html=1;rounded=0;fontSize=15;entryX=1;entryY=1;entryDx=0;entryDy=0;" parent="GGf_Twrp3IPaFsppmbBV-1" target="GGf_Twrp3IPaFsppmbBV-8" edge="1">
          <mxGeometry width="50" height="50" relative="1" as="geometry">
            <mxPoint x="208.1" y="240" as="sourcePoint" />
            <mxPoint x="150.00365136968944" y="202.6309652306178" as="targetPoint" />
          </mxGeometry>
        </mxCell>
        <mxCell id="GGf_Twrp3IPaFsppmbBV-13" value="" style="endArrow=none;html=1;rounded=0;fontSize=15;entryX=0.612;entryY=1.026;entryDx=0;entryDy=0;entryPerimeter=0;exitX=0.644;exitY=-0.032;exitDx=0;exitDy=0;exitPerimeter=0;" parent="GGf_Twrp3IPaFsppmbBV-1" source="GGf_Twrp3IPaFsppmbBV-3" target="GGf_Twrp3IPaFsppmbBV-7" edge="1">
          <mxGeometry width="50" height="50" relative="1" as="geometry">
            <mxPoint x="229.99999999999991" y="244.5" as="sourcePoint" />
            <mxPoint x="140.46291356578686" y="115.50214232778433" as="targetPoint" />
          </mxGeometry>
        </mxCell>
        <mxCell id="GGf_Twrp3IPaFsppmbBV-14" value="" style="endArrow=none;html=1;rounded=0;fontSize=15;entryX=0;entryY=1;entryDx=0;entryDy=0;" parent="GGf_Twrp3IPaFsppmbBV-1" source="GGf_Twrp3IPaFsppmbBV-3" target="GGf_Twrp3IPaFsppmbBV-5" edge="1">
          <mxGeometry width="50" height="50" relative="1" as="geometry">
            <mxPoint x="268.32" y="263.26000000000005" as="sourcePoint" />
            <mxPoint x="260.0000000000003" y="106.74000000000007" as="targetPoint" />
          </mxGeometry>
        </mxCell>
        <mxCell id="GGf_Twrp3IPaFsppmbBV-15" value="" style="endArrow=none;html=1;rounded=0;fontSize=15;entryX=0;entryY=0.5;entryDx=0;entryDy=0;" parent="GGf_Twrp3IPaFsppmbBV-1" target="GGf_Twrp3IPaFsppmbBV-6" edge="1">
          <mxGeometry width="50" height="50" relative="1" as="geometry">
            <mxPoint x="210" y="240" as="sourcePoint" />
            <mxPoint x="281.43708643422065" y="121.00214232777921" as="targetPoint" />
          </mxGeometry>
        </mxCell>
        <mxCell id="GGf_Twrp3IPaFsppmbBV-16" value="User" style="rounded=0;whiteSpace=wrap;html=1;fontSize=15;" parent="GGf_Twrp3IPaFsppmbBV-1" vertex="1">
          <mxGeometry x="90" y="480" width="120" height="60" as="geometry" />
        </mxCell>
        <mxCell id="GGf_Twrp3IPaFsppmbBV-17" value="Nama Benih" style="ellipse;whiteSpace=wrap;html=1;fontSize=15;" parent="GGf_Twrp3IPaFsppmbBV-1" vertex="1">
          <mxGeometry x="470" y="190" width="100" height="60" as="geometry" />
        </mxCell>
        <mxCell id="GGf_Twrp3IPaFsppmbBV-18" value="Tanggal panen" style="ellipse;whiteSpace=wrap;html=1;fontSize=15;" parent="GGf_Twrp3IPaFsppmbBV-1" vertex="1">
          <mxGeometry x="750" y="190" width="100" height="60" as="geometry" />
        </mxCell>
        <mxCell id="GGf_Twrp3IPaFsppmbBV-19" value="Hasil Panen" style="ellipse;whiteSpace=wrap;html=1;fontSize=15;" parent="GGf_Twrp3IPaFsppmbBV-1" vertex="1">
          <mxGeometry x="540" y="70" width="100" height="60" as="geometry" />
        </mxCell>
        <mxCell id="GGf_Twrp3IPaFsppmbBV-20" value="Harga jual" style="ellipse;whiteSpace=wrap;html=1;fontSize=15;" parent="GGf_Twrp3IPaFsppmbBV-1" vertex="1">
          <mxGeometry x="730" y="60" width="100" height="60" as="geometry" />
        </mxCell>
        <mxCell id="GGf_Twrp3IPaFsppmbBV-21" value="fungsi alat" style="ellipse;whiteSpace=wrap;html=1;fontSize=15;" parent="GGf_Twrp3IPaFsppmbBV-1" vertex="1">
          <mxGeometry x="590" y="670" width="100" height="60" as="geometry" />
        </mxCell>
        <mxCell id="GGf_Twrp3IPaFsppmbBV-23" value="Nama Alat" style="ellipse;whiteSpace=wrap;html=1;fontSize=15;" parent="GGf_Twrp3IPaFsppmbBV-1" vertex="1">
          <mxGeometry x="430" y="500" width="100" height="60" as="geometry" />
        </mxCell>
        <mxCell id="GGf_Twrp3IPaFsppmbBV-24" value="Harga alat" style="ellipse;whiteSpace=wrap;html=1;fontSize=15;" parent="GGf_Twrp3IPaFsppmbBV-1" vertex="1">
          <mxGeometry x="730" y="660" width="100" height="60" as="geometry" />
        </mxCell>
        <mxCell id="GGf_Twrp3IPaFsppmbBV-25" value="Jumlah alat" style="ellipse;whiteSpace=wrap;html=1;fontSize=15;" parent="GGf_Twrp3IPaFsppmbBV-1" vertex="1">
          <mxGeometry x="450" y="610" width="100" height="60" as="geometry" />
        </mxCell>
        <mxCell id="GGf_Twrp3IPaFsppmbBV-26" value="" style="endArrow=none;html=1;rounded=0;fontSize=15;exitX=1;exitY=0.5;exitDx=0;exitDy=0;" parent="GGf_Twrp3IPaFsppmbBV-1" source="GGf_Twrp3IPaFsppmbBV-23" edge="1">
          <mxGeometry width="50" height="50" relative="1" as="geometry">
            <mxPoint x="530" y="555" as="sourcePoint" />
            <mxPoint x="580" y="505" as="targetPoint" />
          </mxGeometry>
        </mxCell>
        <mxCell id="GGf_Twrp3IPaFsppmbBV-27" value="" style="endArrow=none;html=1;rounded=0;fontSize=15;exitX=1;exitY=0;exitDx=0;exitDy=0;" parent="GGf_Twrp3IPaFsppmbBV-1" source="GGf_Twrp3IPaFsppmbBV-25" edge="1">
          <mxGeometry width="50" height="50" relative="1" as="geometry">
            <mxPoint x="550" y="565" as="sourcePoint" />
            <mxPoint x="600" y="540" as="targetPoint" />
          </mxGeometry>
        </mxCell>
        <mxCell id="GGf_Twrp3IPaFsppmbBV-28" value="" style="endArrow=none;html=1;rounded=0;fontSize=15;exitX=0.5;exitY=0;exitDx=0;exitDy=0;" parent="GGf_Twrp3IPaFsppmbBV-1" source="GGf_Twrp3IPaFsppmbBV-21" edge="1">
          <mxGeometry width="50" height="50" relative="1" as="geometry">
            <mxPoint x="589.9959152758354" y="618.8714790024787" as="sourcePoint" />
            <mxPoint x="654.5" y="540" as="targetPoint" />
          </mxGeometry>
        </mxCell>
        <mxCell id="GGf_Twrp3IPaFsppmbBV-29" value="" style="endArrow=none;html=1;rounded=0;fontSize=15;exitX=0.5;exitY=0;exitDx=0;exitDy=0;entryX=0.75;entryY=1;entryDx=0;entryDy=0;" parent="GGf_Twrp3IPaFsppmbBV-1" target="GGf_Twrp3IPaFsppmbBV-2" edge="1">
          <mxGeometry width="50" height="50" relative="1" as="geometry">
            <mxPoint x="772.75" y="670.0000000000002" as="sourcePoint" />
            <mxPoint x="787.25" y="540" as="targetPoint" />
          </mxGeometry>
        </mxCell>
        <mxCell id="GGf_Twrp3IPaFsppmbBV-31" value="" style="endArrow=none;html=1;rounded=0;fontSize=15;entryX=0.996;entryY=0.683;entryDx=0;entryDy=0;entryPerimeter=0;" parent="GGf_Twrp3IPaFsppmbBV-1" target="GGf_Twrp3IPaFsppmbBV-17" edge="1">
          <mxGeometry width="50" height="50" relative="1" as="geometry">
            <mxPoint x="635" y="270" as="sourcePoint" />
            <mxPoint x="685" y="220" as="targetPoint" />
          </mxGeometry>
        </mxCell>
        <mxCell id="GGf_Twrp3IPaFsppmbBV-32" value="" style="endArrow=none;html=1;rounded=0;fontSize=15;entryX=0.696;entryY=0.997;entryDx=0;entryDy=0;entryPerimeter=0;" parent="GGf_Twrp3IPaFsppmbBV-1" target="GGf_Twrp3IPaFsppmbBV-19" edge="1">
          <mxGeometry width="50" height="50" relative="1" as="geometry">
            <mxPoint x="665.4" y="270" as="sourcePoint" />
            <mxPoint x="600.0000000000001" y="230.9799999999999" as="targetPoint" />
          </mxGeometry>
        </mxCell>
        <mxCell id="GGf_Twrp3IPaFsppmbBV-33" value="" style="endArrow=none;html=1;rounded=0;fontSize=15;" parent="GGf_Twrp3IPaFsppmbBV-1" target="GGf_Twrp3IPaFsppmbBV-20" edge="1">
          <mxGeometry width="50" height="50" relative="1" as="geometry">
            <mxPoint x="690.0000000000001" y="270.18" as="sourcePoint" />
            <mxPoint x="634.2000000000002" y="129.99999999999994" as="targetPoint" />
          </mxGeometry>
        </mxCell>
        <mxCell id="GGf_Twrp3IPaFsppmbBV-34" value="" style="endArrow=none;html=1;rounded=0;fontSize=15;entryX=0.078;entryY=0.84;entryDx=0;entryDy=0;entryPerimeter=0;exitX=0.825;exitY=-0.042;exitDx=0;exitDy=0;exitPerimeter=0;" parent="GGf_Twrp3IPaFsppmbBV-1" source="GGf_Twrp3IPaFsppmbBV-4" target="GGf_Twrp3IPaFsppmbBV-18" edge="1">
          <mxGeometry width="50" height="50" relative="1" as="geometry">
            <mxPoint x="700" y="280.18000000000006" as="sourcePoint" />
            <mxPoint x="775.7188263233616" y="128.75025753323246" as="targetPoint" />
          </mxGeometry>
        </mxCell>
        <mxCell id="GGf_Twrp3IPaFsppmbBV-35" value="&amp;nbsp;user" style="ellipse;whiteSpace=wrap;html=1;fontSize=15;" parent="GGf_Twrp3IPaFsppmbBV-1" vertex="1">
          <mxGeometry x="10" y="590" width="90" height="60" as="geometry" />
        </mxCell>
        <mxCell id="GGf_Twrp3IPaFsppmbBV-36" value="password" style="ellipse;whiteSpace=wrap;html=1;fontSize=15;" parent="GGf_Twrp3IPaFsppmbBV-1" vertex="1">
          <mxGeometry x="110" y="610" width="100" height="60" as="geometry" />
        </mxCell>
        <mxCell id="GGf_Twrp3IPaFsppmbBV-38" value="" style="endArrow=none;html=1;rounded=0;fontSize=15;exitX=0.25;exitY=1;exitDx=0;exitDy=0;" parent="GGf_Twrp3IPaFsppmbBV-1" source="GGf_Twrp3IPaFsppmbBV-16" target="GGf_Twrp3IPaFsppmbBV-35" edge="1">
          <mxGeometry width="50" height="50" relative="1" as="geometry">
            <mxPoint x="125" y="480" as="sourcePoint" />
            <mxPoint x="175" y="430" as="targetPoint" />
          </mxGeometry>
        </mxCell>
        <mxCell id="GGf_Twrp3IPaFsppmbBV-39" value="" style="endArrow=none;html=1;rounded=0;fontSize=15;exitX=0.5;exitY=1;exitDx=0;exitDy=0;" parent="GGf_Twrp3IPaFsppmbBV-1" source="GGf_Twrp3IPaFsppmbBV-16" edge="1">
          <mxGeometry width="50" height="50" relative="1" as="geometry">
            <mxPoint x="150" y="550" as="sourcePoint" />
            <mxPoint x="160" y="610" as="targetPoint" />
          </mxGeometry>
        </mxCell>
        <mxCell id="GGf_Twrp3IPaFsppmbBV-41" value="" style="endArrow=classic;html=1;rounded=0;fontSize=15;" parent="GGf_Twrp3IPaFsppmbBV-1" target="M6xH8iQ4NFy6qSTSnN0h-0" edge="1">
          <mxGeometry width="50" height="50" relative="1" as="geometry">
            <mxPoint x="135" y="480" as="sourcePoint" />
            <mxPoint x="150" y="420" as="targetPoint" />
          </mxGeometry>
        </mxCell>
        <mxCell id="GGf_Twrp3IPaFsppmbBV-43" value="" style="endArrow=classic;html=1;rounded=0;fontSize=15;" parent="GGf_Twrp3IPaFsppmbBV-1" edge="1">
          <mxGeometry width="50" height="50" relative="1" as="geometry">
            <mxPoint x="250" y="280" as="sourcePoint" />
            <mxPoint x="370" y="350" as="targetPoint" />
          </mxGeometry>
        </mxCell>
        <mxCell id="GGf_Twrp3IPaFsppmbBV-44" value="" style="endArrow=classic;html=1;rounded=0;fontSize=15;exitX=0.5;exitY=0;exitDx=0;exitDy=0;" parent="GGf_Twrp3IPaFsppmbBV-1" source="GGf_Twrp3IPaFsppmbBV-2" edge="1">
          <mxGeometry width="50" height="50" relative="1" as="geometry">
            <mxPoint x="510" y="349.9999999999999" as="sourcePoint" />
            <mxPoint x="660" y="430" as="targetPoint" />
          </mxGeometry>
        </mxCell>
        <mxCell id="M6xH8iQ4NFy6qSTSnN0h-0" value="Input" style="rhombus;whiteSpace=wrap;html=1;fontSize=15;" parent="GGf_Twrp3IPaFsppmbBV-1" vertex="1">
          <mxGeometry x="130" y="350" width="80" height="80" as="geometry" />
        </mxCell>
        <mxCell id="M6xH8iQ4NFy6qSTSnN0h-1" value="" style="endArrow=classic;html=1;rounded=0;fontSize=15;entryX=0.5;entryY=1;entryDx=0;entryDy=0;exitX=0.5;exitY=0;exitDx=0;exitDy=0;" parent="GGf_Twrp3IPaFsppmbBV-1" source="M6xH8iQ4NFy6qSTSnN0h-0" target="GGf_Twrp3IPaFsppmbBV-3" edge="1">
          <mxGeometry width="50" height="50" relative="1" as="geometry">
            <mxPoint x="186.2" y="371.2" as="sourcePoint" />
            <mxPoint x="209.99999999999994" y="310.00000000000006" as="targetPoint" />
          </mxGeometry>
        </mxCell>
        <mxCell id="M6xH8iQ4NFy6qSTSnN0h-2" value="Perawatan" style="rhombus;whiteSpace=wrap;html=1;fontSize=15;" parent="GGf_Twrp3IPaFsppmbBV-1" vertex="1">
          <mxGeometry x="350" y="330" width="80" height="80" as="geometry" />
        </mxCell>
        <mxCell id="M6xH8iQ4NFy6qSTSnN0h-3" value="" style="endArrow=classic;html=1;rounded=0;fontSize=15;entryX=0.147;entryY=-0.089;entryDx=0;entryDy=0;entryPerimeter=0;exitX=1;exitY=1;exitDx=0;exitDy=0;" parent="GGf_Twrp3IPaFsppmbBV-1" source="M6xH8iQ4NFy6qSTSnN0h-2" target="GGf_Twrp3IPaFsppmbBV-2" edge="1">
          <mxGeometry width="50" height="50" relative="1" as="geometry">
            <mxPoint x="470" y="447.3" as="sourcePoint" />
            <mxPoint x="502.84000000000015" y="299.99999999999994" as="targetPoint" />
          </mxGeometry>
        </mxCell>
        <mxCell id="M6xH8iQ4NFy6qSTSnN0h-4" value="Hasil" style="rhombus;whiteSpace=wrap;html=1;fontSize=15;" parent="GGf_Twrp3IPaFsppmbBV-1" vertex="1">
          <mxGeometry x="620" y="350" width="80" height="80" as="geometry" />
        </mxCell>
        <mxCell id="M6xH8iQ4NFy6qSTSnN0h-5" value="" style="endArrow=classic;html=1;rounded=0;fontSize=15;entryX=0.383;entryY=1.033;entryDx=0;entryDy=0;entryPerimeter=0;" parent="GGf_Twrp3IPaFsppmbBV-1" source="M6xH8iQ4NFy6qSTSnN0h-4" target="GGf_Twrp3IPaFsppmbBV-4" edge="1">
          <mxGeometry width="50" height="50" relative="1" as="geometry">
            <mxPoint x="600" y="420" as="sourcePoint" />
            <mxPoint x="580" y="330" as="targetPoint" />
          </mxGeometry>
        </mxCell>
        <mxCell id="q-kjPyN1m_3NmtX6NYIw-0" value="Nama Lahan" style="ellipse;whiteSpace=wrap;html=1;fontSize=15;" vertex="1" parent="GGf_Twrp3IPaFsppmbBV-1">
          <mxGeometry x="170" y="30" width="80" height="60" as="geometry" />
        </mxCell>
        <mxCell id="q-kjPyN1m_3NmtX6NYIw-1" value="" style="endArrow=none;html=1;rounded=0;fontSize=15;entryX=0.612;entryY=1.026;entryDx=0;entryDy=0;entryPerimeter=0;" edge="1" parent="GGf_Twrp3IPaFsppmbBV-1">
          <mxGeometry width="50" height="50" relative="1" as="geometry">
            <mxPoint x="200" y="240" as="sourcePoint" />
            <mxPoint x="200.00000000000003" y="89.99999999999994" as="targetPoint" />
          </mxGeometry>
        </mxCell>
        <mxCell id="q-kjPyN1m_3NmtX6NYIw-2" value="Nama benih" style="ellipse;whiteSpace=wrap;html=1;fontSize=15;" vertex="1" parent="GGf_Twrp3IPaFsppmbBV-1">
          <mxGeometry y="215" width="90" height="50" as="geometry" />
        </mxCell>
        <mxCell id="q-kjPyN1m_3NmtX6NYIw-3" value="" style="endArrow=classic;html=1;rounded=0;exitX=0;exitY=0.25;exitDx=0;exitDy=0;" edge="1" parent="GGf_Twrp3IPaFsppmbBV-1" source="GGf_Twrp3IPaFsppmbBV-3">
          <mxGeometry width="50" height="50" relative="1" as="geometry">
            <mxPoint x="155" y="249" as="sourcePoint" />
            <mxPoint x="85" y="249" as="targetPoint" />
          </mxGeometry>
        </mxCell>
      </root>
    </mxGraphModel>
  </diagram>
</mxfile>
